<?xml version="1.0" encoding="UTF-8" standalone="no"?>
<!-- Creator: CorelDRAW X6 -->

<svg
   xmlns:dc="http://purl.org/dc/elements/1.1/"
   xmlns:cc="http://creativecommons.org/ns#"
   xmlns:rdf="http://www.w3.org/1999/02/22-rdf-syntax-ns#"
   xmlns:svg="http://www.w3.org/2000/svg"
   xmlns="http://www.w3.org/2000/svg"
   xmlns:sodipodi="http://sodipodi.sourceforge.net/DTD/sodipodi-0.dtd"
   xmlns:inkscape="http://www.inkscape.org/namespaces/inkscape"
   xml:space="preserve"
   width="8.25in"
   height="3.4in"
   version="1.1"
   style="shape-rendering:geometricPrecision; text-rendering:geometricPrecision; image-rendering:optimizeQuality; fill-rule:evenodd; clip-rule:evenodd"
   viewBox="0 0 8250 3400"
   sodipodi:version="0.32"
   inkscape:version="0.48.4 r9939"
   inkscape:output_extension="org.inkscape.output.svg.inkscape"
   id="svg4646"
   sodipodi:docname="Disney.svg"><metadata
   id="metadata4756"><rdf:RDF><cc:Work
       rdf:about=""><dc:format>image/svg+xml</dc:format><dc:type
         rdf:resource="http://purl.org/dc/dcmitype/StillImage" /></cc:Work></rdf:RDF></metadata><sodipodi:namedview
   pagecolor="#ffffff"
   bordercolor="#666666"
   borderopacity="1"
   objecttolerance="10"
   gridtolerance="10"
   guidetolerance="10"
   inkscape:pageopacity="0"
   inkscape:pageshadow="2"
   inkscape:window-width="640"
   inkscape:window-height="480"
   id="namedview4754"
   showgrid="false"
   inkscape:zoom="0.41077441"
   inkscape:cx="371.25"
   inkscape:cy="153"
   inkscape:window-x="0"
   inkscape:window-y="0"
   inkscape:window-maximized="0"
   inkscape:current-layer="svg4646" />
 <defs
   id="defs4648">
  <style
   type="text/css"
   id="style4650">
   
    .fil0 {fill:#140F10;fill-rule:nonzero}
   
  </style>
 </defs>
 <g
   id="Layer_x0020_1"
   style="fill:#000000">
  <metadata
   id="CorelCorpID_0Corel-Layer" />
  <g
   id="g3766"
   style="fill:#000000">
   <g
   id="g3768"
   style="fill:#000000">
    <g
   id="g3770"
   style="fill:#000000">
    </g>
   </g>
  </g>
  <g
   id="g9522"
   style="fill:#000000">
   <g
   id="g9524"
   style="fill:#000000">
    <g
   id="g9526"
   style="fill:#000000">
     <g
   id="g9528"
   style="fill:#000000">
     </g>
    </g>
   </g>
  </g>
  <g
   id="g9532"
   style="fill:#000000">
   <g
   id="g9534"
   style="fill:#000000">
    <g
   id="g9536"
   style="fill:#000000">
     <g
   id="g9538"
   style="fill:#000000">
     </g>
    </g>
   </g>
  </g>
  <g
   id="g9542"
   style="fill:#000000">
   <g
   id="g9544"
   style="fill:#000000">
    <g
   id="g9546"
   style="fill:#000000">
     <g
   id="g9548"
   style="fill:#000000">
     </g>
    </g>
   </g>
  </g>
  <g
   id="g9552"
   style="fill:#000000">
   <g
   id="g9554"
   style="fill:#000000">
    <g
   id="g9556"
   style="fill:#000000">
     <g
   id="g9558"
   style="fill:#000000">
     </g>
    </g>
   </g>
  </g>
  <g
   id="g9570"
   style="fill:#000000">
   <g
   id="g9572"
   style="fill:#000000">
    <g
   id="g9574"
   style="fill:#000000">
     <g
   id="g9576"
   style="fill:#000000">
     </g>
    </g>
   </g>
  </g>
  <g
   id="g9580"
   style="fill:#000000">
   <g
   id="g9582"
   style="fill:#000000">
    <g
   id="g9584"
   style="fill:#000000">
     <g
   id="g9586"
   style="fill:#000000">
     </g>
    </g>
   </g>
  </g>
  <g
   id="g9590"
   style="fill:#000000">
   <g
   id="g9592"
   style="fill:#000000">
    <g
   id="g9594"
   style="fill:#000000">
     <g
   id="g9596"
   style="fill:#000000">
     </g>
    </g>
   </g>
  </g>
  <g
   id="g9600"
   style="fill:#000000">
   <g
   id="g9602"
   style="fill:#000000">
    <g
   id="g9604"
   style="fill:#000000">
     <g
   id="g9606"
   style="fill:#000000">
     </g>
    </g>
   </g>
  </g>
  <g
   id="g9610"
   style="fill:#000000">
   <g
   id="g9612"
   style="fill:#000000">
    <g
   id="g9614"
   style="fill:#000000">
     <g
   id="g9616"
   style="fill:#000000">
     </g>
    </g>
   </g>
  </g>
  <g
   id="g9620"
   style="fill:#000000">
   <g
   id="g9622"
   style="fill:#000000">
    <g
   id="g9624"
   style="fill:#000000">
     <g
   id="g9626"
   style="fill:#000000">
     </g>
    </g>
   </g>
  </g>
  <g
   id="g9630"
   style="fill:#000000">
   <g
   id="g9632"
   style="fill:#000000">
    <g
   id="g9634"
   style="fill:#000000">
     <g
   id="g9636"
   style="fill:#000000">
     </g>
    </g>
   </g>
  </g>
  <g
   id="g10128"
   style="fill:#000000">
   <g
   id="g10130"
   style="fill:#000000">
    <g
   id="g10132"
   style="fill:#000000">
    </g>
   </g>
  </g>
  <g
   id="g10326"
   style="fill:#000000">
   <path
   id="path10342"
   class="fil0"
   d="M765 22c-320,9 -579,49 -637,111 -51,55 -115,101 -117,175 -2,73 83,79 135,79 52,0 99,-4 98,-35 0,-42 -68,-34 -68,-76 0,-49 265,-61 397,-61 1137,-4 2444,783 2446,1450 2,519 -673,635 -1046,636 -132,1 -261,-14 -383,-36 -5,-166 -15,-512 -20,-731 43,-1 83,-1 118,-1 275,-1 637,96 638,160 0,55 -96,93 -96,146 1,39 89,33 166,38 14,1 170,-86 169,-223 0,-182 -227,-397 -967,-395 -10,0 -21,1 -32,1 -7,-204 -37,-526 -153,-526 -96,1 -124,355 -133,551 -415,62 -784,231 -783,397 0,136 297,479 777,687 8,154 38,260 174,259 100,0 133,-73 144,-150 155,40 324,62 502,62 697,-2 1256,-374 1254,-884 -2,-684 -1383,-1668 -2584,-1635zm-187 1702c0,-119 363,-164 698,-181 -3,187 -5,456 -5,635 -412,-145 -693,-376 -693,-454z"
   style="fill:#000000" />
   <path
   id="path10344"
   class="fil0"
   d="M3598 1277c-118,1 -121,475 -124,648 -8,396 50,443 155,442 94,0 127,-11 118,-342 -14,-626 -57,-747 -149,-747z"
   style="fill:#000000" />
   <path
   id="path10346"
   class="fil0"
   d="M3659 1097c261,-1 676,-297 675,-542 0,-111 -57,-167 -200,-188 -60,-57 -148,-121 -279,-121 -406,1 -669,324 -669,500 0,65 21,145 79,212 2,140 36,177 82,177 51,0 81,-29 101,-65 58,18 128,28 211,27zm27 -199c-61,0 -111,-7 -154,-20 115,-130 394,-376 531,-376 90,-1 105,71 105,98 0,165 -337,299 -482,299zm19 -437c-125,74 -253,176 -338,279 -4,-14 -6,-27 -6,-39 -1,-79 115,-201 344,-240z"
   style="fill:#000000" />
   <path
   id="path10348"
   class="fil0"
   d="M5009 1362c-1,-109 -283,-108 -441,-107 -119,0 -723,14 -722,351 1,228 338,173 562,195 183,18 405,77 405,137 1,133 -483,187 -583,188 -205,0 -210,-59 -210,-90 0,-30 34,-81 111,-81 77,0 235,98 344,98 109,-1 201,-49 200,-98 0,-89 -362,-133 -474,-132 -117,1 -286,49 -286,225 1,91 150,308 571,306 415,-1 520,-237 519,-358 -1,-296 -280,-329 -524,-350 -182,-15 -380,-24 -379,-64 2,-135 907,-35 906,-219z"
   style="fill:#000000" />
   <path
   id="path10350"
   class="fil0"
   d="M5698 1112c-34,0 -40,36 -40,75 1,115 160,518 160,671 0,32 -3,89 -27,96 -38,11 -372,-598 -510,-607 -143,-10 -219,597 -218,747 1,150 27,250 137,250 165,-1 79,-608 146,-608 49,0 318,555 467,555 162,-1 258,-238 257,-392 -1,-353 -236,-786 -372,-786z"
   style="fill:#000000" />
   <path
   id="path10352"
   class="fil0"
   d="M6818 2052c-58,0 -381,72 -402,52 -21,-20 18,-206 59,-219 41,-13 293,-9 334,-12 117,-6 95,-165 23,-171 -37,-3 -266,-4 -278,-25 -12,-21 3,-126 29,-137 52,-21 399,-31 425,-38 43,-10 75,-33 85,-70 11,-37 -120,-188 -283,-171 -278,31 -639,29 -639,120 0,85 169,119 173,143 5,23 -22,112 -31,139 -10,30 -131,39 -139,122 -2,19 30,49 23,72 -19,71 -76,214 -76,274 1,92 68,298 258,292 298,-10 566,-218 570,-255 7,-55 -76,-119 -133,-119z"
   style="fill:#000000" />
   <path
   id="path10354"
   class="fil0"
   d="M7974 1345c-163,9 -475,354 -658,587 -11,-24 -18,-47 -18,-68 0,-98 186,-393 220,-467 36,-77 -5,-178 -49,-142 -88,71 -366,395 -365,697 0,69 18,154 57,231 -63,202 -214,653 -209,926 2,141 145,280 230,262 33,-7 40,-192 83,-318 60,-180 156,-510 190,-651 15,1 31,3 48,3 340,-1 717,-363 716,-676 -1,-312 -186,-387 -245,-383zm-391 772c136,-237 335,-551 409,-550 51,1 71,52 71,129 1,232 -280,424 -480,421z"
   style="fill:#000000" />
  </g>
  <g
   id="g10492"
   style="fill:#000000">
   <g
   id="g10494"
   style="fill:#000000">
    <g
   id="g10496"
   style="fill:#000000">
     <g
   id="g10498"
   style="fill:#000000">
     </g>
    </g>
   </g>
  </g>
  <g
   id="g10728"
   style="fill:#000000">
   <g
   id="g10730"
   style="fill:#000000">
   </g>
  </g>
  <g
   id="g11250"
   style="fill:#000000">
   <g
   id="g11252"
   style="fill:#000000">
    <g
   id="g11254"
   style="fill:#000000">
     <g
   id="g11256"
   style="fill:#000000">
     </g>
    </g>
   </g>
  </g>
  <g
   id="g11322"
   style="fill:#000000">
   <g
   id="g11324"
   style="fill:#000000">
    <g
   id="g11326"
   style="fill:#000000">
     <g
   id="g11328"
   style="fill:#000000">
     </g>
    </g>
   </g>
  </g>
  <g
   id="g11332"
   style="fill:#000000">
   <g
   id="g11334"
   style="fill:#000000">
    <g
   id="g11336"
   style="fill:#000000">
     <g
   id="g11338"
   style="fill:#000000">
     </g>
    </g>
   </g>
  </g>
  <g
   id="g12370"
   style="fill:#000000">
   <g
   id="g12372"
   style="fill:#000000">
    <g
   id="g12374"
   style="fill:#000000">
     <g
   id="g12376"
   style="fill:#000000">
     </g>
    </g>
   </g>
  </g>
  <g
   id="g12380"
   style="fill:#000000">
   <g
   id="g12382"
   style="fill:#000000">
    <g
   id="g12384"
   style="fill:#000000">
     <g
   id="g12386"
   style="fill:#000000">
     </g>
    </g>
   </g>
  </g>
  <g
   id="g12390"
   style="fill:#000000">
   <g
   id="g12392"
   style="fill:#000000">
    <g
   id="g12394"
   style="fill:#000000">
     <g
   id="g12396"
   style="fill:#000000">
     </g>
    </g>
   </g>
  </g>
  <g
   id="g14230"
   style="fill:#000000">
  </g>
  <g
   id="g14242"
   style="fill:#000000">
   <g
   id="g14244"
   style="fill:#000000">
   </g>
  </g>
  <g
   id="g14288"
   style="fill:#000000">
   <g
   id="g14290"
   style="fill:#000000">
    <g
   id="g14292"
   style="fill:#000000">
     <g
   id="g14294"
   style="fill:#000000">
     </g>
    </g>
   </g>
  </g>
  <g
   id="g14298"
   style="fill:#000000">
   <g
   id="g14300"
   style="fill:#000000">
    <g
   id="g14302"
   style="fill:#000000">
     <g
   id="g14304"
   style="fill:#000000">
     </g>
    </g>
   </g>
  </g>
  <g
   id="g14356"
   style="fill:#000000">
  </g>
 </g>
</svg>