<?xml version="1.0" encoding="UTF-8" standalone="no"?>
<!-- Created with Inkscape (http://www.inkscape.org/) -->
<svg
   xmlns:svg="http://www.w3.org/2000/svg"
   xmlns="http://www.w3.org/2000/svg"
   version="1.0"
   width="400"
   height="200"
   viewBox="0 0 612 792"
   id="Layer_1"
   xml:space="preserve"><defs
   id="defs78" />
<g
   transform="matrix(4.1088215,0,0,4.1088215,-948.74374,-1232.6468)"
   id="g3">
	<polygon
   points="209,300 401.756,300 401.756,492.756 209,492.756 209,300 "
   transform="matrix(2,0,0,1,-305.37799,8.8167097e-5)"
   id="polygon5"
   style="fill:none;fill-rule:evenodd;stroke:none" />
	<path
   d="M 222.59201,404.23033 C 222.59201,404.23033 222.59201,404.23033 220.64001,404.23033 C 218.68601,404.23033 218.84601,400.88833 218.84601,398.52433 C 218.84601,396.16033 218.53001,384.56833 218.53001,376.84033 C 218.53001,369.11433 214.78001,367.06633 212.90601,364.77833 C 211.03001,362.49233 204.90401,355.38233 204.90401,355.38233 C 204.53201,354.95433 203.81601,354.78633 203.30201,355.00833 C 203.30201,355.00833 197.44001,357.52233 192.51801,360.75833 C 187.59601,363.99033 190.40801,367.37833 193.06601,371.71633 C 195.72001,376.05233 195.79801,376.36833 196.58001,376.13233 C 197.36201,375.89433 196.97001,374.16233 196.97001,372.42833 C 196.97001,370.69033 199.62601,369.19233 203.13801,366.59233 C 206.65401,363.99033 206.73201,368.01233 206.96801,373.21633 C 207.20201,378.41833 207.90601,395.44833 207.90601,401.36233 C 207.90601,407.27633 206.65601,407.59233 205.56201,407.66833 C 204.47001,407.74633 203.76601,406.17433 203.22001,403.17633 C 202.67201,400.18033 201.73001,387.24833 201.73001,387.24833 C 201.68801,386.68433 201.99001,385.90633 202.39601,385.52033 L 205.37001,382.67233 C 205.77801,382.28433 205.72201,381.71633 205.25001,381.41233 C 205.25001,381.41233 204.39201,380.86433 190.09601,381.80633 C 188.44801,381.91433 186.95401,382.09633 185.57001,382.33033 L 185.57001,349.27033 L 189.91801,343.58233 C 190.25801,343.13233 190.08401,342.82033 189.52801,342.88033 C 189.52801,342.88033 182.90201,343.62433 180.36201,343.62433 C 177.82201,343.62433 169.26401,343.73033 169.26401,343.73033 C 168.70601,343.73833 168.52401,344.11233 168.86401,344.56233 L 172.23601,349.04433 C 172.27601,349.09233 172.32001,349.14433 172.36801,349.19833 L 172.36801,387.98033 C 169.58201,389.97633 166.93801,392.23433 163.45801,394.42233 C 161.40001,395.71833 159.33801,396.67633 157.35201,397.38033 L 157.35201,356.65233 C 157.35201,356.08833 157.17601,354.03233 158.00601,353.06033 L 160.16801,350.46033 C 160.52601,350.02833 160.36401,349.67433 159.80201,349.67433 L 151.60001,349.67433 C 151.04001,349.67433 150.12601,349.67433 149.56601,349.67433 L 139.94601,349.67433 C 139.38601,349.67433 139.25001,350.00433 139.64801,350.40033 L 142.87601,353.65833 C 143.27201,354.06033 143.59601,355.24633 143.59601,357.24233 L 143.59601,398.99633 C 143.18601,398.94433 142.82401,398.89033 142.52001,398.83633 C 139.39401,398.28433 132.65801,392.26233 132.65801,392.26233 C 132.24001,391.88633 132.22201,391.25633 132.61601,390.85433 C 132.61601,390.85433 133.69401,389.76833 134.63001,389.13833 C 135.57001,388.50833 138.69201,386.61433 138.69201,386.61433 C 134.00601,386.65433 131.05801,386.94833 129.62201,387.88633 L 129.62201,392.98233 L 129.63201,393.00033 C 132.36601,398.20433 137.28401,400.96633 141.03401,403.49033 C 141.71001,403.94033 142.59601,404.25833 143.59401,404.48233 L 143.59401,431.57033 C 143.59401,432.13433 143.24201,432.89633 142.81401,433.25833 L 138.63801,436.78633 C 138.21001,437.15033 138.31801,437.45833 138.87601,437.47433 C 138.87601,437.47433 146.98001,437.71633 151.11401,437.85033 C 155.24801,437.98433 160.75401,439.40833 160.75401,439.40833 C 161.30201,439.51233 161.44201,439.25833 161.06401,438.84233 L 158.03801,435.50833 C 157.66001,435.09433 157.35001,434.29233 157.35001,433.72433 L 157.35001,403.91833 L 157.85601,403.80033 C 158.40001,403.67233 159.29001,403.45433 159.83201,403.31833 C 159.83201,403.31833 162.59601,402.62233 165.64601,401.20233 C 168.69001,399.78233 172.02601,397.17833 172.02601,397.17833 C 172.46801,396.83033 172.82001,397.01033 172.80601,397.57233 C 172.80601,397.57233 172.75001,400.01833 172.75001,404.22433 C 172.75001,408.43233 172.67401,422.72433 172.75001,428.95233 C 172.82801,435.18233 170.87801,439.04433 169.08201,441.17233 C 167.28801,443.30033 165.95601,444.16633 166.27201,444.88033 C 166.58401,445.58833 167.98801,445.35233 168.61201,445.35233 C 169.24001,445.35233 174.15801,444.95833 175.95601,444.95833 C 177.75201,444.95833 184.39001,444.64233 187.36001,445.66633 C 190.33001,446.69033 191.81201,446.61433 191.97001,445.43033 C 192.04401,444.87833 190.01601,444.16433 187.59401,440.14633 C 186.07601,437.62233 185.87801,434.78433 185.87801,429.65833 C 185.87801,424.53633 186.03201,398.75433 185.87801,392.92033 C 185.72201,387.08433 186.26801,387.24233 189.00201,386.37433 C 191.73601,385.50633 195.36001,384.57833 195.36001,384.57833 C 195.90201,384.43633 196.02801,384.64433 195.64201,385.03233 C 195.64201,385.03233 195.64201,385.03233 192.36201,387.63833 C 189.08201,390.24033 189.55001,392.92233 190.48601,397.80833 C 190.81801,399.52633 192.12601,405.14033 193.69001,411.52433 C 195.13601,417.43433 199.86201,414.75633 201.97001,413.49833 C 204.08001,412.23433 206.06601,411.20633 206.06601,411.20633 C 206.56201,410.94833 207.04201,411.19433 207.13001,411.74833 C 207.13001,411.74833 207.67401,415.22833 210.32801,415.54433 C 212.98401,415.85833 213.53401,414.28233 216.11001,411.36433 C 218.68601,408.45033 222.54401,404.90833 222.54401,404.90833 C 222.95801,404.54033 222.98001,404.23033 222.59201,404.23033 L 222.59201,404.23033 z"
   id="path7" />
	<path
   d="M 247.42001,366.83833 C 247.42001,366.83833 246.97801,363.96833 245.49801,359.76633 C 244.01401,355.56433 241.77801,351.71433 241.77801,351.71433 C 241.49601,351.23033 240.87601,351.07633 240.40401,351.37833 L 233.13401,356.02233 C 232.82201,350.34633 232.59001,346.24033 232.59001,346.24033 C 232.55801,345.67833 232.16801,345.49433 231.72001,345.83433 L 216.14401,357.68233 C 215.69601,358.02033 215.78801,358.32033 216.34401,358.34833 L 221.82601,358.61633 C 222.38201,358.64433 222.84601,359.12833 222.85401,359.69233 L 223.55201,404.96433 C 223.56001,405.52833 223.24401,406.31833 222.84601,406.71633 L 220.16801,409.42433 C 219.77401,409.82233 219.90801,410.13033 220.46601,410.10833 L 239.02601,409.33433 C 239.58801,409.31233 239.68801,409.00233 239.25001,408.64633 L 236.47201,406.39233 C 236.03601,406.03633 235.64601,405.28433 235.60401,404.72033 C 235.60401,404.72033 234.95201,395.84233 234.71201,387.77033 C 234.57401,383.18433 233.90601,370.37833 233.35601,360.19033 L 233.91601,359.92033 C 234.42201,359.67833 234.94401,359.93233 235.07201,360.48033 C 235.07201,360.48033 236.92001,368.31433 237.45001,370.52033 C 237.97601,372.72833 236.96201,373.47833 236.96201,373.47833 C 236.51401,373.81233 236.43401,374.43833 236.78801,374.87433 L 236.80201,374.89233 C 237.15601,375.32833 237.80801,375.40233 238.25401,375.06033 L 246.76601,368.47433 C 247.21601,368.13233 247.50801,367.39633 247.42001,366.83833 L 247.42001,366.83833 z"
   id="path9" />
	<path
   d="M 275.00001,360.13033 L 269.77801,347.15033 C 269.57001,346.62433 269.03001,346.47233 268.58201,346.80833 L 260.67001,352.76033 L 260.67001,340.62233 C 260.67001,340.06033 260.34601,339.92433 259.95201,340.32833 L 247.49001,353.02633 C 247.09601,353.42833 247.17401,353.98633 247.65801,354.26233 L 248.61801,354.81633 C 249.10601,355.10033 249.49401,355.79033 249.49001,356.35233 L 248.97401,400.44433 C 248.96601,401.00833 248.63801,401.79833 248.24401,402.20033 L 245.02601,405.46233 C 244.63001,405.86433 244.75801,406.10033 245.30601,405.99433 C 245.30601,405.99433 248.98401,405.27433 253.39801,405.27433 C 257.81601,405.27433 263.29601,405.71633 263.29601,405.71633 C 263.85401,405.76233 264.00801,405.45033 263.64001,405.02633 L 261.34201,402.37633 C 260.97601,401.95033 260.67401,401.14033 260.67401,400.57633 L 260.67401,357.96433 C 260.81001,356.30833 261.31801,355.88033 262.15001,355.68033 C 263.17001,355.43433 264.33601,360.59433 264.87401,363.39233 C 265.41001,366.19033 263.93001,367.33633 263.93001,367.33633 C 263.48401,367.67833 263.41001,368.32033 263.76001,368.76033 L 263.89601,368.92833 C 264.24601,369.37033 264.89401,369.44033 265.33201,369.09033 L 274.58801,361.71433 C 275.02601,361.36833 275.21201,360.65833 275.00001,360.13033 L 275.00001,360.13033 z"
   id="path11" />
	<path
   d="M 262.22001,374.89433 C 261.81801,374.50433 261.94001,374.17033 262.50201,374.14433 L 277.94801,373.56433 C 278.51001,373.54433 278.60201,373.80433 278.15201,374.14433 L 276.74001,375.21433 C 276.29001,375.55433 276.03201,376.27833 276.16201,376.82633 L 279.94201,393.03633 C 280.07201,393.58233 280.41601,393.63833 280.71001,393.16033 C 280.71001,393.16033 285.58601,383.49833 286.56601,380.86833 C 287.54401,378.24033 289.39201,372.74233 289.39201,372.74233 C 289.56801,372.20833 289.35201,371.49033 288.91001,371.14433 L 286.72001,369.43833 C 286.27801,369.09433 286.37001,368.84033 286.92801,368.87433 L 298.79801,369.62433 C 299.35601,369.66233 299.62601,370.11033 299.39201,370.62633 C 299.39201,370.62633 290.47601,390.51033 285.80601,399.83033 C 281.13601,409.14433 264.93801,436.96033 264.93801,436.96033 C 264.63601,437.43433 263.93201,437.77833 263.37401,437.72033 C 263.37401,437.72033 246.51401,435.48633 240.00001,434.06433 C 233.48601,432.63833 222.75201,426.24233 222.75201,426.24233 C 222.26001,425.97233 222.03601,425.32833 222.25401,424.80833 C 222.25401,424.80833 224.58601,419.94233 225.34601,418.51633 C 226.10601,417.09233 228.89201,414.94433 228.89201,414.94433 C 229.31201,414.57033 230.11001,414.32033 230.66601,414.39233 L 241.80401,415.30033 C 242.36001,415.37033 242.26801,415.89033 241.75001,416.10433 L 235.16401,418.96233 C 234.64601,419.17433 234.15201,419.77433 233.90001,420.32633 L 232.30201,423.94233 C 231.92801,424.89233 232.31001,425.75833 232.87001,425.80633 L 259.81001,427.73233 C 260.36801,427.77433 261.05201,427.40833 261.32601,426.92033 L 269.95401,408.53833 C 270.23001,408.04833 270.33801,407.20033 270.19201,406.65633 L 264.14201,377.48233 C 263.99601,376.93833 263.54401,376.17033 263.14201,375.78233 L 262.22001,374.89433 L 262.22001,374.89433 z"
   id="path13" />
	<path
   d="M 383.33801,361.00633 C 383.89201,361.03233 384.35001,361.51433 384.35201,362.07633 L 384.51801,416.29033 C 384.52201,416.85433 384.92001,417.53833 385.40601,417.81433 L 398.64201,425.27033 C 399.12801,425.54433 399.73801,425.36033 399.99601,424.86433 L 400.01401,424.82233 C 400.27401,424.32433 400.12401,423.63633 399.68401,423.29233 L 395.08801,419.70033 C 394.65401,419.35633 394.30601,418.61633 394.32001,418.05433 L 395.92201,361.63633 C 395.93601,361.07433 396.40601,360.60833 396.96001,360.60233 L 401.04201,360.54233 C 401.60001,360.53233 402.04001,360.06833 402.02601,359.50633 L 401.91401,356.17633 C 401.89601,355.61233 401.42601,355.14433 400.87001,355.12633 L 396.69801,355.00833 C 396.14201,354.99233 395.67801,354.51833 395.66601,353.95633 L 395.44601,341.03233 C 395.43601,340.46833 395.14801,340.37433 394.81001,340.82233 C 394.81001,340.82233 390.92801,345.93233 386.87801,349.96033 C 380.60001,356.21233 375.73201,359.99233 375.73201,359.99233 C 375.28801,360.33433 375.38001,360.63833 375.94001,360.66433 L 383.33801,361.00633 L 383.33801,361.00633 z"
   id="path15" />
	<path
   d="M 403.22401,367.55833 C 403.78201,367.56433 404.24401,368.02833 404.25401,368.59233 L 405.09201,420.08233 C 405.10201,420.64233 405.52601,421.29033 406.03601,421.52033 L 426.25001,430.64033 C 426.76201,430.86633 427.45801,430.69033 427.80401,430.25033 L 432.83401,423.76033 C 433.18001,423.31433 433.82201,422.68433 434.27801,422.35433 L 435.51601,421.44033 C 435.97201,421.11033 435.88001,420.81233 435.32401,420.77833 L 420.94601,419.85233 C 420.39401,419.81433 419.96201,420.12033 419.98601,420.53233 C 420.00401,420.94433 420.47801,421.35233 421.02601,421.44033 L 428.01201,422.53233 C 428.56001,422.62033 428.72001,423.03833 428.35401,423.46833 L 425.92001,426.32033 C 425.55601,426.74433 424.85601,426.88233 424.36401,426.62433 L 417.52401,423.07033 C 417.02801,422.81433 416.62001,422.14433 416.60801,421.58233 L 415.77401,368.86433 C 415.76401,368.30233 416.20801,367.81233 416.76401,367.78033 L 422.15601,367.46033 C 422.71001,367.42833 423.16001,366.94233 423.14601,366.37833 L 423.10001,364.02033 C 423.08601,363.45833 422.62401,362.99233 422.07001,362.98633 L 416.50401,362.92233 C 415.94801,362.91633 415.47401,362.45033 415.45601,361.88633 L 414.91401,345.97033 C 414.89601,345.40833 414.64001,345.34033 414.35001,345.81633 C 414.35001,345.81633 408.42601,355.51433 405.72401,358.68433 C 403.01601,361.85233 398.39401,366.75033 398.39401,366.75033 C 398.01201,367.15633 398.15601,367.49633 398.71001,367.50433 L 403.22401,367.55833 L 403.22401,367.55833 z"
   id="path17" />
	<path
   d="M 435.55601,359.59433 C 435.98201,359.23433 436.73801,359.15633 437.22801,359.42233 L 447.12801,364.71433 C 447.61801,364.97633 448.17401,365.62633 448.36401,366.15233 L 452.39201,377.52433 C 452.58001,378.05633 452.47001,378.86033 452.14001,379.31633 L 448.35601,384.61633 C 448.02601,385.07033 447.31601,385.34233 446.77401,385.21433 L 434.27201,382.32433 C 433.72401,382.19833 433.29401,382.55433 433.31401,383.11833 L 433.94601,404.14433 C 433.96401,404.70233 434.30001,405.48833 434.69601,405.88633 L 438.40601,409.63633 C 438.80201,410.03433 439.24401,409.92033 439.40201,409.37833 L 443.20401,396.11033 C 443.35801,395.56833 443.74601,395.50433 444.07201,395.96033 L 447.87201,401.33633 C 448.19001,401.79433 448.18801,402.54233 447.85601,402.99633 L 441.02801,412.43633 C 440.69601,412.89233 439.97601,413.22833 439.42201,413.18433 L 433.49801,412.72633 C 432.94601,412.68433 432.17201,412.32233 431.78201,411.92033 L 422.65201,402.54633 C 422.25801,402.14633 421.95201,401.35633 421.97601,400.79833 L 423.03401,371.05433 C 423.05801,370.49233 423.41801,369.74033 423.84801,369.38233 L 435.55601,359.59433 L 435.55601,359.59433 z M 435.13401,364.49633 C 434.59601,364.63833 434.14001,365.21033 434.11601,365.77433 L 433.66801,377.55633 C 433.64801,378.11833 434.08001,378.64033 434.63001,378.72233 L 442.83601,379.92833 C 443.38601,380.01033 443.65401,379.65433 443.43001,379.14033 L 437.26601,364.98633 C 437.04401,364.47233 436.41401,364.16633 435.87801,364.30833 L 435.13401,364.49633 L 435.13401,364.49633 z"
   id="path19" />
	<path
   d="M 453.04001,367.68033 C 453.59401,367.76433 454.05201,368.29633 454.06601,368.85833 C 454.06601,368.85833 454.70801,399.00633 454.82801,405.34233 C 455.00201,414.67433 448.75601,415.98433 448.75601,415.98433 C 448.20801,416.10033 448.20601,416.31233 448.74201,416.45633 C 448.74201,416.45633 453.33001,417.99033 460.41001,419.60433 C 467.33601,421.18433 477.71601,420.97033 477.71601,420.97033 C 478.27001,420.94433 478.30201,420.76433 477.78001,420.56633 C 477.78001,420.56633 471.31401,418.10833 469.83201,417.22633 C 468.35001,416.34833 466.50801,416.12833 466.34001,402.96433 C 466.14201,387.02633 465.65801,367.44633 465.65801,367.44633 C 465.65001,366.88433 466.02601,366.17433 466.48801,365.86833 L 466.54001,365.83633 C 467.00801,365.53233 467.53601,365.71033 467.73001,366.23833 L 470.79401,374.88433 C 470.98201,375.41033 470.86601,376.21433 470.53401,376.66633 L 468.77201,379.07233 C 468.44001,379.52433 468.46801,380.21433 468.82601,380.59833 C 469.18201,380.98633 469.83601,381.01633 470.27201,380.66833 C 470.27201,380.66833 475.41201,376.54833 476.98001,375.13833 C 478.55201,373.73233 480.90001,371.29033 480.90001,371.29033 C 480.99201,371.19433 481.06601,371.08233 481.12401,370.95633 L 481.12401,369.66233 L 474.23401,356.67033 C 473.96801,356.17433 473.36401,356.01233 472.89001,356.30233 L 466.33001,360.34433 C 465.86001,360.63633 465.42401,360.41833 465.37201,359.86033 L 464.87001,354.67233 C 464.81601,354.11433 464.44401,353.97433 464.03601,354.36033 L 451.28601,366.59833 C 450.88601,366.98633 451.00201,367.37033 451.55401,367.45633 L 453.04001,367.68033 L 453.04001,367.68033 z"
   id="path21" />
	<path
   d="M 379.94201,387.78633 C 379.78801,382.31233 379.24001,374.01233 379.24001,374.01233 C 379.22801,373.45433 378.86801,372.69833 378.43801,372.33833 C 378.43801,372.33833 376.95201,370.18633 373.42401,367.16633 C 369.89601,364.15233 367.91201,363.48433 367.91201,363.48433 C 367.48201,363.12833 366.72001,363.02633 366.21601,363.26633 L 357.02401,367.63633 C 356.52401,367.87633 355.71601,368.30433 355.23201,368.58833 L 350.62201,371.30033 C 350.14601,371.58433 349.74601,372.27833 349.74401,372.83833 C 349.74401,372.83833 349.51001,373.53833 349.27401,375.63833 C 347.96601,375.22433 346.40601,374.68633 345.43801,374.34633 C 345.75201,371.74033 346.34201,366.24033 346.57001,359.94233 C 346.88801,351.16833 346.88801,349.09033 346.88801,349.09033 C 346.88801,348.52433 346.60401,347.70633 346.25801,347.26833 C 346.25801,347.26833 334.65801,331.36433 334.57601,331.26433 C 334.49801,331.17033 334.43001,331.04433 334.20001,331.04433 C 334.07001,331.04833 300.67201,332.94833 300.67201,332.94833 C 300.67201,332.94833 305.91201,337.10833 306.20601,337.37033 C 306.50201,337.63033 306.58801,337.92033 306.64801,338.35433 C 306.70201,338.78633 308.63001,355.68633 308.92601,358.31233 C 309.48201,363.22033 310.52201,367.41633 309.59401,367.70833 C 308.91201,367.92233 305.87601,365.10033 305.87601,365.10033 C 305.87601,365.10033 308.34801,391.43033 309.04201,397.04433 C 309.73801,402.65633 310.81401,409.79433 310.25801,409.79433 C 309.70001,409.79433 306.50801,405.50633 306.50801,405.50633 L 313.89001,476.40833 C 313.89001,476.40833 314.86401,465.74633 315.28001,459.85233 C 315.69601,453.95833 316.46201,437.78833 317.71601,437.78833 C 318.96401,437.78833 321.46801,442.56033 321.46801,442.56033 C 321.46801,442.56033 321.24201,420.80033 321.24201,414.91233 C 321.24201,409.01633 320.59001,400.39233 321.55801,400.10833 C 322.53001,399.82633 325.82801,408.88033 325.82801,408.88033 C 325.82801,408.88033 324.69401,390.15433 324.41401,375.19633 L 328.99801,383.13233 C 329.27801,383.61833 329.95801,383.96033 330.50801,383.88233 C 330.50801,383.88233 335.97201,383.15833 339.04601,381.87633 C 342.12001,380.59233 344.44601,377.74433 344.44601,377.74433 C 344.45201,377.73633 344.46201,377.72633 344.46801,377.71433 L 348.98801,379.40433 C 348.89401,381.19033 348.83801,383.41633 348.83801,386.18633 C 348.84001,396.85633 349.54801,404.17833 349.54801,404.17833 C 349.54001,404.74233 349.88201,405.50233 350.30401,405.87233 C 350.30401,405.87233 352.27001,408.31833 355.57401,411.17433 C 358.87201,414.03233 362.24001,416.40033 362.24001,416.40033 C 362.65801,416.77433 363.41001,416.86833 363.90401,416.61033 C 363.90401,416.61033 368.66801,415.21633 372.05801,413.43633 C 374.90601,411.94433 379.16801,408.76433 379.16801,408.76433 C 379.66201,408.51033 380.05601,407.83833 380.04401,407.28033 C 380.04001,407.27833 380.09001,393.26033 379.94201,387.78633 L 379.94201,387.78633 z M 332.46801,375.81633 L 330.89001,377.76633 C 330.53801,378.20233 329.97801,378.18433 329.65001,377.73233 L 327.35001,374.56833 C 327.02001,374.11433 327.20001,373.83433 327.74201,373.94233 L 332.11801,374.82633 C 332.66401,374.93633 332.82001,375.38233 332.46801,375.81633 L 332.46801,375.81633 z M 331.99001,369.89233 C 331.99001,369.89233 331.20201,369.89233 329.71601,369.99833 C 328.64601,370.07433 325.83201,370.79033 324.34001,371.18433 C 324.11801,359.45233 323.97601,345.18233 323.82801,337.03633 L 331.17801,337.37633 C 331.79201,337.40633 331.85201,337.61233 331.87401,338.17433 L 332.96801,368.87233 C 332.98401,369.43233 332.54601,369.89233 331.99001,369.89233 L 331.99001,369.89233 z M 358.96001,373.80033 C 358.91201,373.23633 359.24401,372.52433 359.70401,372.21233 L 365.44601,368.32233 C 365.90401,368.01033 366.12801,368.18433 365.94201,368.71233 C 365.94201,368.71233 364.80201,371.92433 363.10401,373.53033 C 361.40801,375.13233 360.09601,375.76433 360.09601,375.76433 C 359.59401,376.00433 359.14001,375.74433 359.08601,375.18633 L 358.96001,373.80033 L 358.96001,373.80033 z M 368.36401,408.77833 C 368.39001,409.33833 368.01601,410.03633 367.54201,410.32433 L 364.18201,412.36833 C 363.71001,412.66033 363.02001,412.54633 362.66001,412.12033 L 360.37001,409.39633 C 360.00801,408.96833 359.70201,408.16033 359.69201,407.59633 L 359.20201,380.11433 C 359.18601,379.55433 359.62401,378.98833 360.17001,378.86433 L 366.14201,377.50033 C 366.68401,377.37633 367.14601,377.73233 367.17001,378.29233 C 367.17001,378.29233 367.85001,383.14033 368.24401,392.80833 C 368.63801,402.47633 368.36401,408.77833 368.36401,408.77833 L 368.36401,408.77833 z"
   id="path23" />
	
	
	
	
	
	
	
	
	
	
	
	
	
	<path
   d="M 344.30801,448.77233 C 344.30201,448.77833 344.29401,448.78433 344.29001,448.79033 C 344.33801,448.78433 344.38601,448.77833 344.43201,448.77233 C 344.39201,448.77233 344.34801,448.77233 344.30801,448.77233 L 344.30801,448.77233 z"
   id="path51" />
	
	
	
	
	
	
	
	
	
	
	
	
</g>
</svg>