<?xml version="1.0" encoding="utf-8"?>
<!-- Generator: Adobe Illustrator 15.0.2, SVG Export Plug-In . SVG Version: 6.00 Build 0)  -->
<!DOCTYPE svg PUBLIC "-//W3C//DTD SVG 1.1//EN" "http://www.w3.org/Graphics/SVG/1.1/DTD/svg11.dtd">
<svg version="1.1" id="Layer_1" xmlns="http://www.w3.org/2000/svg" xmlns:xlink="http://www.w3.org/1999/xlink" x="0px" y="0px"
	 width="987.18px" height="103.383px" viewBox="0 0 987.18 103.383" enable-background="new 0 0 987.18 103.383"
	 xml:space="preserve">
<g>
	<path fill="#1D2756" d="M50.179,12.723l0.945,20.27c-1.16-2.269-3.012-5.238-5.559-8.906c-2.547-3.668-4.469-6.101-5.767-7.298
		c-1.299-1.197-3.983-2.042-8.055-2.534s-7.513,0.189-10.323,2.042c-2.812,1.853-4.67,3.857-5.578,6.013
		c-0.907,2.155-0.939,4.355-0.094,6.599c0.844,2.244,2.13,4.103,3.857,5.578c1.727,1.475,4.336,2.949,7.828,4.424
		c3.492,1.475,6.939,3.126,10.343,4.954c3.403,1.828,6.807,3.882,10.21,6.164c3.404,2.282,5.886,4.986,7.45,8.111
		c1.563,3.126,2.263,6.599,2.099,10.418c-0.165,3.819-0.732,6.674-1.702,8.565c-0.971,1.891-2.37,3.889-4.198,5.994
		c-1.828,2.105-4.475,4.185-7.941,6.24c-3.466,2.055-7.903,2.943-13.311,2.666c-5.408-0.278-10.091-1.954-14.048-5.029
		c-3.958-3.076-5.792-5.062-5.502-5.956c0.289-0.895,1.494-0.668,3.611,0.681c2.118,1.348,4.097,2.584,5.937,3.706
		c1.84,1.121,3.844,1.928,6.013,2.42c2.168,0.492,4.765,0.58,7.79,0.265c3.025-0.315,5.508-1.147,7.449-2.496
		c1.941-1.349,3.435-2.887,4.481-4.614c1.046-1.727,1.947-3.882,2.704-6.466s0.466-6.019-0.87-10.305
		c-1.336-4.286-5.389-8.124-12.158-11.515s-12.473-6.901-17.111-10.532c-4.639-3.63-7.336-6.977-8.093-10.04
		s-0.781-5.786-0.076-8.168s2.137-4.759,4.292-7.128c2.156-2.369,4.475-4.128,6.958-5.275c2.482-1.147,5.943-1.582,10.38-1.305
		c4.438,0.278,7.658,1.337,9.662,3.177c2.004,1.84,3.574,2.861,4.708,3.063C47.646,16.707,48.869,15.445,50.179,12.723z"/>
	<path fill="#1D2756" d="M92.494,20.021c-0.176,29.698,0.013,46.734,0.567,51.107c0.554,4.374,2.653,8.092,6.296,11.156
		c3.643,3.063,8.124,4.676,13.444,4.84c5.319,0.164,9.932-1.791,13.84-5.861c3.908-4.072,5.937-9.435,6.088-16.091V16.92
		c0-3.05-3.101-5.256-9.303-6.618h21.782c-6.126,1.21-9.202,3.417-9.227,6.618v48.215c-0.529,6-1.746,10.677-3.649,14.029
		s-4.525,6.265-7.865,8.735c-3.341,2.471-7.425,3.844-12.252,4.122c-4.828,0.277-9.146-0.586-12.952-2.59
		c-3.807-2.004-6.813-4.292-9.019-6.864c-2.207-2.571-3.744-5.181-4.614-7.828c-0.87-2.647-1.355-5.937-1.456-9.87V10.303
		L92.494,20.021z"/>
	<path fill="#1D2756" d="M177.708,20.286c-0.278-4.967-4.941-8.206-13.992-9.719h13.992V20.286z M177.67,10.567h15.883
		c14.294,0,23.231,2.786,26.811,8.357c2.899,3.378,4.349,7.639,4.349,12.781c0.202,11.42-7.664,18.77-23.597,22.046
		c-12.757,1.362-14.818,1.009-6.183-1.059c8.635-2.067,15.321-6.441,20.062-13.122c5.848-13.462,1.84-21.782-12.025-24.958
		c-10.286-0.63-15.681,0.958-16.185,4.765V81.32l-9.114,10.966C177.67,46.959,177.67,19.719,177.67,10.567z"/>
	<path fill="#1D2756" d="M242.153,10.681h57.404c1.79,5.395,2.168,11.925,1.134,19.588h-1.664l-0.265-1.021
		c-1.689-8.319-7.135-13.008-16.336-14.067h-15.391c-2.244,0-3.378,3.795-3.403,11.383V48.61h28.059v3.517h-28.059V83.74
		c0,4.033,2.464,6.126,7.393,6.277c4.929,0.151,9.681-0.441,14.256-1.777s8.174-3.599,10.796-6.788
		c2.622-3.189,4.525-5.988,5.71-8.395s2.162-3.636,2.931-3.687s1.305,0.51,1.607,1.683c0.302,1.172-0.006,3.12-0.927,5.842
		c-0.92,2.723-2.2,7.841-3.838,15.354l-61.147,0.038c9.025,0.076,13.525-5.13,13.5-15.618V20.551
		C253.938,15.937,250.018,12.647,242.153,10.681z"/>
	<path fill="#1D2756" d="M364.891,11.551c2.837,0.58,5.799,1.563,8.888,2.949c3.087,1.387,5.558,3.649,7.412,6.788
		c1.853,3.139,2.723,6.555,2.609,10.248c-0.113,3.693-0.681,6.517-1.701,8.471c-1.022,1.954-2.408,3.655-4.16,5.105
		c-1.753,1.45-3.607,2.736-5.56,3.857c-1.955,1.122-3.316,1.771-4.084,1.948c-0.77,0.176-1.563,0.51-2.382,1.002
		c-0.82,0.492-0.971,1.046-0.454,1.664c0.516,0.618,1.158,1.361,1.928,2.231c0.768,0.87,2.383,2.641,4.84,5.313
		c2.459,2.672,4.538,5.937,6.24,9.794c1.701,3.857,2.81,6.68,3.328,8.471c0.516,1.79,1.059,3.101,1.625,3.933
		c0.568,0.832,1.134,1.613,1.703,2.345c0.566,0.731,1.405,1.046,2.514,0.945s1.96-0.492,2.553-1.172
		c0.591-0.681,1.744-1.046,3.458-1.097c-0.907,2.823-2.136,4.746-3.686,5.767c-1.551,1.021-3.071,1.688-4.558,2.004
		c-1.487,0.315-3.05,0.523-4.689,0.624s-3-0.435-4.084-1.607c-1.084-1.172-1.91-2.351-2.476-3.536
		c-0.568-1.186-1.21-2.937-1.929-5.256c-0.718-2.32-1.67-4.941-2.855-7.866s-2.388-5.849-3.61-8.773
		c-1.223-2.924-2.25-5.111-3.082-6.561c-0.832-1.45-2.118-2.666-3.858-3.649c-1.739-0.983-3.202-1.544-4.386-1.683
		c-1.186-0.139-2.112-0.391-2.78-0.756s-1.216-0.857-1.645-1.475c-0.429-0.618-0.283-1.128,0.435-1.531
		c0.719-0.403,3.012-0.554,6.882-0.454c3.87,0.101,6.241-0.006,7.109-0.321c0.871-0.315,1.973-1.059,3.309-2.231
		c1.336-1.172,2.597-2.584,3.782-4.235c1.185-1.651,1.909-3.58,2.175-5.786c0.264-2.206,0.163-4.311-0.302-6.315
		c-0.467-2.004-1.343-4.116-2.629-6.334s-2.956-4.248-5.01-6.088c-2.055-1.84-4.986-3.227-8.792-4.16
		c-6.177,0.025-9.265,1.311-9.265,3.857l-0.151,61.64l-8.924,12.63V21.383c-0.025-5.244-2.812-8.71-8.357-10.399
		C350.515,10.782,362.055,10.971,364.891,11.551z"/>
	<path fill="#1D2756" d="M422.991,22.214c-0.252-6.227-4.248-10.298-11.988-12.214h11.988V22.214z M422.953,10l0.038,82.135h3.555
		l-0.038-65.042c0.126-2.672,1.576-2.206,4.349,1.399l45.151,64.249V17.072c0-3.378,2.319-5.017,6.958-4.916V10h-17.282
		c5.042,1.21,7.563,3.644,7.563,7.298v56.042L428.058,10H422.953z"/>
	<path fill="#1D2756" d="M522.886,9.773h12.365L535.933,10l0.643,0.454l0.379,0.681l0.15,0.605l25.678,81.644l-0.266-0.113
		l-1.135-0.832l-0.68-0.567l-9.189-8.471l-6.051-20.496l-0.189-0.945l-0.189-0.302l-0.15-0.265l-0.303-0.076l-0.303-0.076
		l-1.135-0.151l-24.655,0.038h-0.302l-0.189,0.189l-0.038,0.189l-0.113,0.302l-8.055,28.135l-0.794,2.156l-0.416,0.378l-0.341,0.114
		l-0.341,0.076h-0.34l-0.34-0.038l-0.567-0.265l-0.303-0.265l-0.265-0.416l-0.076-0.303v-0.34l0.113-0.529l0.039-0.189l0.037-0.189
		l21.063-67.274l0.491-2.004l0.454-3.933l-0.265-2.42l-0.869-1.323l-1.06-0.87l-0.907-0.416l-0.908-0.227l-0.982-0.227l-1.324-0.265
		l-1.285-0.038l0.491-0.416l0.832-0.605l0.378-0.189L522.886,9.773z M520.39,56.854l-0.188,0.719l-0.038,0.227v0.151l0.076,0.151
		l0.113,0.151l0.189,0.113h22.613l0.15-0.151v-0.34l-0.074-0.416l-8.623-31.916l-0.604-1.097l-0.604-0.53l-0.719-0.075L532,23.916
		l-0.68,0.416l-0.644,1.248L520.39,56.854z"/>
	<path fill="#1D2756" d="M603.958,18.206c0.025-2.899-1.867-4.336-5.674-4.311c-11.723,0-19.436,5.508-23.143,16.525l2.609-16.374
		c0.025-2.596,1.412-3.895,4.16-3.895h53.623c2.494,0,3.73,1.299,3.705,3.895l2.646,16.298c-3.68-10.991-12.15-16.475-25.412-16.45
		c-1.941,0.303-2.961,1.689-3.062,4.16v61.904l-9.453,12.176V18.206z"/>
	<path fill="#1D2756" d="M673.859,20.021c-0.178,29.698,0.012,46.734,0.566,51.107c0.555,4.374,2.654,8.092,6.297,11.156
		c3.643,3.063,8.123,4.676,13.443,4.84c5.318,0.164,9.934-1.791,13.84-5.861c3.908-4.072,5.938-9.435,6.088-16.091V16.92
		c0-3.05-3.1-5.256-9.301-6.618h21.781c-6.127,1.21-9.203,3.417-9.227,6.618v48.215c-0.529,6-1.748,10.677-3.65,14.029
		c-1.904,3.353-4.525,6.265-7.865,8.735c-3.342,2.471-7.426,3.844-12.252,4.122c-4.828,0.277-9.145-0.586-12.951-2.59
		c-3.809-2.004-6.814-4.292-9.02-6.864c-2.207-2.571-3.744-5.181-4.613-7.828c-0.871-2.647-1.355-5.937-1.457-9.87V10.303
		L673.859,20.021z"/>
	<path fill="#1D2756" d="M788.316,11.551c2.836,0.58,5.797,1.563,8.887,2.949c3.088,1.387,5.559,3.649,7.412,6.788
		c1.852,3.139,2.723,6.555,2.607,10.248c-0.111,3.693-0.68,6.517-1.699,8.471c-1.023,1.954-2.41,3.655-4.16,5.105
		c-1.754,1.45-3.605,2.736-5.561,3.857c-1.953,1.122-3.314,1.771-4.084,1.948s-1.562,0.51-2.381,1.002
		c-0.82,0.492-0.973,1.046-0.455,1.664c0.518,0.618,1.16,1.361,1.928,2.231c0.77,0.87,2.385,2.641,4.842,5.313
		c2.459,2.672,4.537,5.937,6.24,9.794c1.701,3.857,2.811,6.68,3.328,8.471c0.516,1.79,1.059,3.101,1.625,3.933
		c0.568,0.832,1.135,1.613,1.701,2.345c0.566,0.731,1.406,1.046,2.516,0.945s1.959-0.492,2.553-1.172
		c0.592-0.681,1.746-1.046,3.459-1.097c-0.906,2.823-2.137,4.746-3.686,5.767c-1.553,1.021-3.07,1.688-4.559,2.004
		c-1.486,0.315-3.049,0.523-4.688,0.624s-3-0.435-4.084-1.607s-1.91-2.351-2.477-3.536c-0.568-1.186-1.211-2.937-1.93-5.256
		c-0.719-2.32-1.67-4.941-2.855-7.866s-2.389-5.849-3.611-8.773c-1.223-2.924-2.25-5.111-3.082-6.561s-2.117-2.666-3.857-3.649
		c-1.738-0.983-3.201-1.544-4.387-1.683c-1.184-0.139-2.111-0.391-2.779-0.756s-1.217-0.857-1.645-1.475
		c-0.428-0.618-0.283-1.128,0.434-1.531c0.721-0.403,3.014-0.554,6.883-0.454c3.871,0.101,6.24-0.006,7.109-0.321
		c0.871-0.315,1.973-1.059,3.311-2.231c1.336-1.172,2.596-2.584,3.781-4.235c1.184-1.651,1.908-3.58,2.174-5.786
		c0.264-2.206,0.164-4.311-0.303-6.315s-1.342-4.116-2.627-6.334c-1.287-2.218-2.957-4.248-5.012-6.088
		c-2.055-1.84-4.984-3.227-8.791-4.16c-6.178,0.025-9.266,1.311-9.266,3.857l-0.15,61.64l-8.926,12.63V21.383
		c-0.025-5.244-2.811-8.71-8.357-10.399C773.939,10.782,785.48,10.971,788.316,11.551z"/>
	<path fill="#1D2756" d="M856.958,9.773h12.365l0.68,0.227l0.645,0.454l0.377,0.681l0.152,0.605l25.676,81.644l-0.264-0.113
		l-1.135-0.832l-0.682-0.567l-9.189-8.471l-6.051-20.496l-0.188-0.945l-0.189-0.302l-0.152-0.265l-0.301-0.076L878.4,61.24
		l-1.135-0.151l-24.656,0.038h-0.303l-0.189,0.189l-0.037,0.189l-0.113,0.302l-8.055,28.135l-0.795,2.156l-0.416,0.378l-0.34,0.114
		l-0.34,0.076h-0.34l-0.342-0.038l-0.566-0.265l-0.303-0.265l-0.266-0.416l-0.074-0.303v-0.34l0.113-0.529l0.037-0.189l0.039-0.189
		l21.062-67.274l0.492-2.004l0.453-3.933l-0.266-2.42l-0.869-1.323l-1.059-0.87l-0.908-0.416l-0.906-0.227l-0.984-0.227
		l-1.322-0.265l-1.287-0.038l0.492-0.416l0.832-0.605l0.379-0.189L856.958,9.773z M854.462,56.854l-0.189,0.719l-0.037,0.227v0.151
		l0.074,0.151l0.113,0.151l0.189,0.113h22.613l0.152-0.151v-0.34l-0.076-0.416l-8.621-31.916l-0.605-1.097l-0.605-0.53l-0.719-0.075
		l-0.68,0.075l-0.682,0.416l-0.643,1.248L854.462,56.854z"/>
	<path fill="#1D2756" d="M927.773,8.79l9.492,9.378c-0.328,38.874-0.283,59.71,0.133,62.509s0.908,4.689,1.475,5.672
		c0.568,0.983,1.291,1.601,2.174,1.853c0.883,0.251,1.809,0.485,2.781,0.7c0.969,0.214,3.717,0.265,8.242,0.151
		c4.525-0.113,7.557-0.397,9.096-0.851c1.537-0.454,2.797-0.838,3.781-1.153c0.982-0.316,2.086-1.116,3.309-2.401
		s2.4-2.773,3.535-4.462s1.961-3.12,2.477-4.292c0.518-1.172,1.129-2.212,1.834-3.12c0.707-0.908,1.066,0.246,1.078,3.46
		s-0.164,6.258-0.529,9.132s-0.75,4.721-1.152,5.54c-0.404,0.819-0.939,1.229-1.607,1.229c-0.67,0-20.479,0-59.428,0
		c0.807-0.933,1.904-1.576,3.291-1.928c1.385-0.354,2.98-0.889,4.783-1.607c1.801-0.718,3.113-1.979,3.932-3.782
		c0.82-1.802,1.256-4.67,1.305-8.603V8.79z"/>
</g>
</svg>
